<svg width="90" height="57" viewBox="0 0 90 57" fill="none" xmlns="http://www.w3.org/2000/svg">
<g clip-path="url(#clip0_41_692)">
<path d="M19.7068 12.625C17.6873 17.2162 16.4607 22.4327 16.4607 28.5664C16.4607 34.6423 17.6654 39.7764 19.6521 44.2949L5.37769 30.7764L5.33374 30.7354L5.28784 30.6963L4.98999 30.4297C4.3501 29.8152 4.09351 29.2425 4.09351 28.4873C4.09362 27.6169 4.42925 26.998 5.28198 26.2881L5.33081 26.2471L5.37769 26.2021L19.7068 12.625Z" fill="white" stroke="#6F0E18" stroke-width="4"/>
<path d="M45.291 2.76392C47.6684 2.76392 49.8541 3.45186 51.4023 4.37817C52.1762 4.8412 52.7335 5.32952 53.0771 5.76001C53.3435 6.09366 53.429 6.32226 53.4551 6.43677L53.4658 6.51294V6.51392C53.4657 6.51555 53.4649 6.51669 53.4648 6.51685V6.51782C53.4646 6.51859 53.4639 6.52046 53.4629 6.52271C53.4611 6.52677 53.4551 6.54054 53.4395 6.56274L53.3564 6.65747C50.4791 9.39001 49.1475 12.3313 49.1348 15.1584V15.1604C49.116 20.4867 53.7607 24.3936 58.1699 24.3938C61.0508 24.3938 63.4629 23.2635 65.127 21.3264C66.7628 19.422 67.5625 16.8759 67.5625 14.179C67.5625 12.6796 67.3632 11.2631 67.0283 9.93091L84.208 26.2024L84.2549 26.2473L84.3037 26.2883C85.1574 26.9986 85.4932 27.6185 85.4932 28.4885C85.4931 29.3505 85.1585 29.9748 84.2988 30.6956L84.252 30.7346L84.208 30.7766L67.0293 47.0403C67.3637 45.7091 67.5625 44.2933 67.5625 42.7942C67.5625 40.0959 66.7631 37.5499 65.127 35.6458C63.4625 33.7088 61.0502 32.5803 58.1699 32.5803C53.7602 32.5805 49.1161 36.4895 49.1348 41.8137V41.8157C49.1475 44.6434 50.4809 47.588 53.3623 50.3245H53.3633C53.4384 50.3978 53.4596 50.442 53.4629 50.4495C53.4646 50.4534 53.4645 50.4561 53.4648 50.4651C53.4631 50.5206 53.4258 50.7761 53.0781 51.2112C52.7345 51.6411 52.1772 52.1294 51.4033 52.592C49.8549 53.5176 47.6687 54.2053 45.291 54.2053C41.8948 54.2052 39.253 51.9693 37.3613 47.3049C35.4662 42.6321 34.5791 36.0194 34.5791 28.5667C34.5791 21.1165 35.4658 14.46 37.3633 9.74243C39.2611 5.02412 41.9079 2.76405 45.291 2.76392Z" fill="white" stroke="#6F0E18" stroke-width="4"/>
</g>
<defs>
<clipPath id="clip0_41_692">
<rect x="-0.00683594" y="0.395508" width="89.6135" height="56.0084" rx="28.0042" fill="white"/>
</clipPath>
</defs>
</svg>
